<?xml version="1.0" standalone="no"?>
<!DOCTYPE svg PUBLIC "-//W3C//DTD SVG 20010904//EN"
 "http://www.w3.org/TR/2001/REC-SVG-20010904/DTD/svg10.dtd">
<svg version="1.0" xmlns="http://www.w3.org/2000/svg"
 width="700.000000pt" height="700.000000pt" viewBox="0 0 700.000000 700.000000"
 preserveAspectRatio="xMidYMid meet">
<metadata>
Created by potrace 1.11, written by Peter Selinger 2001-2013
</metadata>
<g transform="translate(0.000000,700.000000) scale(0.100000,-0.100000)"
fill="#000000" stroke="none">
<path d="M3235 6855 c-11 -2 -69 -9 -130 -15 -603 -65 -1226 -326 -1715 -719
-135 -109 -402 -376 -511 -511 -323 -402 -563 -906 -668 -1406 -56 -263 -65
-361 -66 -694 0 -357 16 -514 84 -800 107 -454 349 -946 650 -1320 109 -135
376 -402 511 -511 374 -301 868 -544 1320 -650 298 -70 429 -84 790 -84 361 0
492 14 790 84 452 106 946 349 1320 650 135 109 402 376 511 511 301 374 543
866 650 1320 68 286 84 443 84 800 -1 333 -10 431 -66 694 -105 500 -345 1004
-668 1406 -109 135 -376 402 -511 511 -320 257 -747 483 -1131 598 -328 99
-560 133 -939 136 -157 2 -294 2 -305 0z m-385 -1930 l0 -55 -207 -2 -208 -3
0 -539 0 -540 60 5 c230 17 551 -8 860 -66 71 -14 135 -25 142 -25 10 0 13
116 13 585 l0 585 -205 0 -205 0 0 56 0 55 803 -4 c860 -4 854 -4 1032 -58
259 -78 460 -265 541 -504 25 -72 27 -95 28 -225 1 -126 -2 -155 -22 -220 -46
-145 -121 -259 -239 -362 -190 -168 -426 -258 -722 -277 -69 -5 -127 -7 -129
-6 -2 2 38 25 88 51 101 53 220 147 287 226 137 160 188 333 187 628 -1 188
-16 274 -65 381 -58 126 -195 226 -339 249 -36 5 -165 10 -287 10 l-223 0 0
-644 0 -644 71 -12 c40 -7 133 -15 208 -19 l136 -6 -59 -39 c-85 -56 -198
-115 -280 -147 l-71 -28 -3 -600 -2 -601 210 0 210 0 0 -55 0 -55 -680 0 -680
0 0 55 0 55 205 0 205 0 0 594 0 594 -42 6 c-24 3 -90 10 -148 16 -58 6 -184
22 -280 35 -237 33 -455 55 -540 55 l-70 0 2 -647 3 -648 213 -3 212 -2 0 -55
0 -55 -685 0 -685 0 0 55 0 55 210 0 210 0 0 619 0 619 -60 -19 c-32 -10 -121
-43 -196 -74 -75 -30 -138 -54 -140 -52 -2 2 21 37 51 78 74 101 196 221 278
276 l67 45 0 624 0 624 -210 0 -210 0 0 55 0 55 680 0 680 0 0 -55z"/>
</g>
</svg>
