<svg xmlns="http://www.w3.org/2000/svg" viewBox="0 0 73.702 73.701">
<title>hp</title>
<path class="mainelem" fill="#ffc217" d="M36.851,1.418c-19.571,0-35.433,15.863-35.433,35.435c0,19.565,15.862,35.431,35.433,35.431
	c19.568,0,35.433-15.865,35.433-35.431C72.284,17.281,56.419,1.418,36.851,1.418z M55.246,35.709
	c-1.854,1.639-4.624,2.989-8.933,2.989l-0.237-0.002c1.953-0.814,4.255-2.309,5.448-5.003l-0.028-0.014
	c0.474-1.1,0.716-2.588,0.716-4.469c0-2.094-0.331-3.629-0.989-4.616c-0.658-0.983-1.604-1.524-2.337-1.813
	c-0.55-0.215-0.998-0.338-2.331-0.338h-4.046v13.532c0,0,1.305,0.392,4.43,0.392c-2.661,1.82-4.43,2.266-4.43,2.266v12.622h4.409
	v1.187H32.592v-1.187h4.383V38.75c-4.703-0.367-7.933-1.257-11.351-1.151v13.656h4.436v1.187H15.678v-1.187h4.411V38.242
	c-1.309,0.34-2.921,1.074-4.282,1.643c1.101-1.779,2.689-3.422,4.282-4.275V22.443h-4.411V21.26h14.373v1.184h-4.427v11.426
	c3.522-0.484,7.931,0.198,11.351,0.938V22.443h-4.383V21.26h14.48c3.628,0,6.358,0.803,8.198,2.418
	c1.834,1.611,2.754,3.595,2.754,5.953C58.024,32.048,57.098,34.074,55.246,35.709z"/>
</svg>
