<?xml version="1.0" encoding="utf-8"?>
<svg xmlns="http://www.w3.org/2000/svg" width="296.538px" height="73.701px" viewBox="0 0 296.538 73.701">
<title>Haris Park</title>
<path fill="#FEC21A" d="M36.851,1.418c-19.571,0-35.433,15.863-35.433,35.435c0,19.565,15.862,35.431,35.433,35.431
	c19.568,0,35.433-15.865,35.433-35.431C72.284,17.281,56.419,1.418,36.851,1.418z M55.246,35.709
	c-1.854,1.639-4.624,2.989-8.933,2.989l-0.237-0.002c1.953-0.814,4.255-2.309,5.448-5.003l-0.028-0.014
	c0.474-1.1,0.716-2.588,0.716-4.469c0-2.094-0.331-3.629-0.989-4.616c-0.658-0.983-1.604-1.524-2.337-1.813
	c-0.55-0.215-0.998-0.338-2.331-0.338h-4.046v13.532c0,0,1.305,0.392,4.43,0.392c-2.661,1.82-4.43,2.266-4.43,2.266v12.622h4.409
	v1.187H32.592v-1.187h4.383V38.75c-4.703-0.367-7.933-1.257-11.351-1.151v13.656h4.436v1.187H15.678v-1.187h4.411V38.242
	c-1.309,0.34-2.921,1.074-4.282,1.643c1.101-1.779,2.689-3.422,4.282-4.275V22.443h-4.411V21.26h14.373v1.184h-4.427v11.426
	c3.522-0.484,7.931,0.198,11.351,0.938V22.443h-4.383V21.26h14.48c3.628,0,6.358,0.803,8.198,2.418
	c1.834,1.611,2.754,3.595,2.754,5.953C58.024,32.048,57.098,34.074,55.246,35.709z"/>
<g fill="#FEC21A">
	<path d="M157.315,47.186c-0.36-0.432-0.539-1.411-0.539-2.943c0-2.673-0.634-4.567-1.899-5.688
		c-1.267-1.121-2.889-1.873-4.868-2.262v-0.088c2.757-0.473,4.712-1.173,5.866-2.102c1.155-0.93,1.731-2.145,1.731-3.642
		c0-1.201-0.395-2.264-1.184-3.186c-0.789-0.927-1.728-1.537-2.818-1.831c-1.089-0.295-2.483-0.439-4.179-0.439h-12.984v0.897h3.728
		v21.892h-4.497l-8.287-23.338h-0.547l-8.64,23.338h-4.056V25.903h3.729v-0.897h-11.626v0.897h3.692v10.125H99.709V25.903h3.763
		v-0.897H91.776v0.897h3.728v21.892h-3.728v0.9h11.695v-0.9h-3.763V36.93h10.229v10.865h-3.692v0.9h17.271v-0.9h-4.381l2.42-6.483
		h7.525l2.315,6.483h-3.834v0.9h20.54v-0.9h-3.729V36.541h2.208c2.357,0,3.867,0.51,4.532,1.527c0.665,1.02,0.998,2.054,0.998,3.102
		l-0.071,3.004c-0.023,1.036,0.365,2.096,1.166,3.178c0.801,1.085,2.173,1.625,4.117,1.625c0.955,0,1.943-0.176,2.968-0.528v-0.865
		c-0.577,0.165-1.072,0.245-1.484,0.245C158.172,47.828,157.674,47.617,157.315,47.186z M121.892,40.41l3.463-9.489h0.07
		l3.339,9.489H121.892z M144.373,35.708v-9.805h4.012c1,0,1.81,0.077,2.428,0.225c0.618,0.145,1.146,0.535,1.581,1.171
		c0.436,0.637,0.654,1.646,0.654,3.021c0,1.685-0.215,2.912-0.645,3.686c-0.43,0.771-1.005,1.248-1.723,1.432
		c-0.719,0.181-1.76,0.271-3.127,0.271H144.373z"/>
	<polygon points="161.476,25.903 165.345,25.903 165.345,47.795 161.476,47.795 161.476,48.695 173.454,48.695
		173.454,47.795 169.55,47.795 169.55,25.903 173.454,25.903 173.454,25.006 161.476,25.006 	"/>
	<path d="M187.428,34.623c-1.055-0.499-2.589-0.926-4.603-1.27c-2.015-0.349-3.401-0.84-4.16-1.477
		c-0.76-0.636-1.141-1.409-1.141-2.313c0-0.979,0.457-1.925,1.369-2.838c0.913-0.913,2.194-1.369,3.844-1.369
		c2.979,0,5.058,1.845,6.236,5.532h0.83l-0.106-6.151h-0.724c-0.317,0.556-0.695,1.037-1.133,1.449
		c-1.576-1.152-3.278-1.729-5.104-1.729c-2.179,0-3.905,0.703-5.177,2.111c-1.271,1.406-1.908,3.005-1.908,4.797
		c0,1.294,0.365,2.476,1.094,3.541c0.731,1.066,1.608,1.815,2.633,2.244c1.024,0.433,2.494,0.806,4.408,1.13
		c1.915,0.323,3.298,0.912,4.151,1.769c0.854,0.853,1.283,1.902,1.283,3.152c0,1.484-0.617,2.712-1.847,3.684
		c-1.23,0.97-2.582,1.459-4.056,1.459c-1.484,0-2.85-0.527-4.099-1.573c-1.247-1.049-2.219-2.614-2.914-4.701h-0.76v6.626h0.62
		l1.66-1.483c1.814,1.354,3.634,2.032,5.461,2.032c2.236,0,4.113-0.771,5.626-2.313c1.513-1.545,2.27-3.474,2.27-5.796
		c0-1.508-0.362-2.845-1.087-4.011C189.372,35.957,188.48,35.122,187.428,34.623z"/>
	<path d="M210.175,37.849h3.428c3.274,0,5.613-0.622,7.022-1.865c1.407-1.242,2.111-2.781,2.111-4.618
		c0-1.792-0.698-3.299-2.093-4.522c-1.396-1.228-3.472-1.837-6.228-1.837h-12.209v0.897h3.763v21.892h-3.763v0.9h11.801v-0.9h-3.833
		V37.849z M210.175,25.903h3.074c1.012,0,1.861,0.088,2.544,0.258c0.684,0.171,1.276,0.631,1.775,1.377
		c0.5,0.75,0.751,1.919,0.751,3.507c0,1.802-0.287,3.134-0.857,3.995c-0.571,0.859-1.252,1.388-2.04,1.589
		c-0.79,0.2-1.779,0.301-2.968,0.301h-2.28V25.903z"/>
	<path d="M272.441,25.903h3.728v-0.897h-11.643v0.897h3.711v21.892h-3.711v-0.001
		c-1.531,0.282-2.755-0.177-3.114-0.608c-0.36-0.432-0.539-1.411-0.539-2.943c0-2.673-0.632-4.567-1.898-5.688
		c-1.266-1.121-2.889-1.873-4.868-2.262v-0.088c2.755-0.473,4.709-1.173,5.864-2.102c1.154-0.93,1.731-2.145,1.731-3.642
		c0-1.201-0.393-2.264-1.183-3.186c-0.789-0.927-1.729-1.537-2.818-1.831c-1.088-0.295-2.482-0.439-4.178-0.439h-12.985v0.897h3.728
		v21.892h-4.496l-8.286-23.338h-0.548l-8.638,23.338h-3.271v0.9h8.588v-0.9h-4.382l2.419-6.483h7.527l2.313,6.483h-3.833v0.9h20.538
		v-0.9h-3.727V36.541h2.208c2.357,0,3.867,0.51,4.531,1.527c0.666,1.02,0.999,2.054,0.999,3.102l-0.07,3.004
		c-0.023,1.036,0.365,2.096,1.167,3.178c0.799,1.085,2.173,1.625,4.116,1.625c0.955,0,2.204-0.156,3.105-0.281h11.643v-0.9h-3.728
		V25.903z M225.988,40.41l3.464-9.489h0.07l3.338,9.489H225.988z M248.471,35.708v-9.805h4.012c0.999,0,1.81,0.077,2.428,0.225
		c0.619,0.145,1.146,0.535,1.58,1.171c0.437,0.637,0.656,1.646,0.656,3.021c0,1.685-0.215,2.912-0.647,3.686
		c-0.427,0.771-1.001,1.248-1.722,1.432c-0.718,0.181-1.761,0.271-3.127,0.271H248.471z"/>
	<polygon points="287.635,47.795 276.169,33.959 284.014,25.903 287.635,25.903 287.635,25.006 278.696,25.006
		278.696,25.903 282.725,25.903 272.849,36.1 282.387,47.795 278.307,47.795 278.307,48.695 289.95,48.695 289.95,47.795 	"/>
</g>
</svg>
